<svg xmlns="http://www.w3.org/2000/svg" viewBox="0 0 32 32">
  <rect width="32" height="32" rx="6" fill="#306998"/>
  <path d="M16 4c-3.3 0-6 2.7-6 6v2h8v1H9c-2.8 0-5 2.2-5 5s2.2 5 5 5h2v-4c0-2.8 2.2-5 5-5h6c1.7 0 3-1.3 3-3V10c0-3.3-2.7-6-6-6h-3z" fill="#ffd43b"/>
  <circle cx="11" cy="9" r="1.2" fill="#306998"/>
  <path d="M16 28c3.3 0 6-2.7 6-6v-2h-8v-1h9c2.8 0 5-2.2 5-5s-2.2-5-5-5h-2v4c0 2.8-2.2 5-5 5h-6c-1.7 0-3 1.3-3 3v4c0 3.3 2.7 6 6 6h3z" fill="white"/>
  <circle cx="21" cy="23" r="1.2" fill="#306998"/>
  <path d="M25 6h3c1.1 0 2 .9 2 2v2c0 1.1-.9 2-2 2h-1v1.5l-1.5-1.5H24c-1.1 0-2-.9-2-2V8c0-1.1.9-2 2-2z" fill="white" opacity="0.8"/>
</svg>
